<?xml version="1.0" encoding="us-ascii" standalone="no"?><svg xmlns="http://www.w3.org/2000/svg" xmlns:xlink="http://www.w3.org/1999/xlink" contentStyleType="text/css" height="639px" preserveAspectRatio="none" style="width:1165px;height:639px;background:#FFFFFF;" version="1.1" viewBox="0 0 1165 639" width="1165px" zoomAndPan="magnify"><defs/><g><!--class Step--><g id="elem_Step"><rect codeLine="4" fill="#F1F1F1" height="78.1358" id="Step" rx="2.5" ry="2.5" style="stroke:#181818;stroke-width:0.5;" width="255" x="407" y="340"/><ellipse cx="516.75" cy="356" fill="#A9DCDF" rx="11" ry="11" style="stroke:#181818;stroke-width:1.0;"/><path d="M516.8594,351.3438 L515.7031,356.4219 L518.0313,356.4219 L516.8594,351.3438 Z M515.375,349.1094 L518.3594,349.1094 L521.7188,361.5 L519.2656,361.5 L518.5,358.4375 L515.2188,358.4375 L514.4688,361.5 L512.0313,361.5 L515.375,349.1094 Z " fill="#000000"/><text fill="#000000" font-family="sans-serif" font-size="14" font-style="italic" lengthAdjust="spacing" textLength="27" x="537.25" y="361.432">Step</text><line style="stroke:#181818;stroke-width:0.5;" x1="408" x2="661" y1="372" y2="372"/><rect fill="none" height="6" style="stroke:#C82930;stroke-width:1.0;" width="6" x="415" y="384.034"/><text fill="#000000" font-family="sans-serif" font-size="14" lengthAdjust="spacing" textLength="68" x="427" y="390.9659">name : str</text><rect fill="none" height="6" style="stroke:#C82930;stroke-width:1.0;" width="6" x="415" y="403.1019"/><text fill="#000000" font-family="sans-serif" font-size="14" lengthAdjust="spacing" textLength="229" x="427" y="410.0339">parameters : Map&lt;String, Object&gt;</text></g><!--class CompilerConfigV2--><g id="elem_CompilerConfigV2"><rect codeLine="9" fill="#F1F1F1" height="116.2717" id="CompilerConfigV2" rx="2.5" ry="2.5" style="stroke:#181818;stroke-width:0.5;" width="198" x="435.5" y="7"/><ellipse cx="470.75" cy="23" fill="#ADD1B2" rx="11" ry="11" style="stroke:#181818;stroke-width:1.0;"/><path d="M473.7188,28.6406 Q473.1406,28.9375 472.5,29.0781 Q471.8594,29.2344 471.1563,29.2344 Q468.6563,29.2344 467.3281,27.5938 Q466.0156,25.9375 466.0156,22.8125 Q466.0156,19.6875 467.3281,18.0313 Q468.6563,16.375 471.1563,16.375 Q471.8594,16.375 472.5,16.5313 Q473.1563,16.6875 473.7188,16.9844 L473.7188,19.7031 Q473.0938,19.125 472.5,18.8594 Q471.9063,18.5781 471.2813,18.5781 Q469.9375,18.5781 469.25,19.6563 Q468.5625,20.7188 468.5625,22.8125 Q468.5625,24.9063 469.25,25.9844 Q469.9375,27.0469 471.2813,27.0469 Q471.9063,27.0469 472.5,26.7813 Q473.0938,26.5 473.7188,25.9219 L473.7188,28.6406 Z " fill="#000000"/><text fill="#000000" font-family="sans-serif" font-size="14" lengthAdjust="spacing" textLength="121" x="489.25" y="28.432">CompilerConfigV2</text><line style="stroke:#181818;stroke-width:0.5;" x1="436.5" x2="632.5" y1="39" y2="39"/><rect fill="none" height="6" style="stroke:#C82930;stroke-width:1.0;" width="6" x="443.5" y="51.034"/><text fill="#000000" font-family="sans-serif" font-size="14" lengthAdjust="spacing" textLength="91" x="455.5" y="57.9659">name : String</text><rect fill="none" height="6" style="stroke:#C82930;stroke-width:1.0;" width="6" x="443.5" y="70.1019"/><text fill="#000000" font-family="sans-serif" font-size="14" lengthAdjust="spacing" textLength="142" x="455.5" y="77.0339">use_wandb : boolean</text><rect fill="none" height="6" style="stroke:#C82930;stroke-width:1.0;" width="6" x="443.5" y="89.1698"/><text fill="#000000" font-family="sans-serif" font-size="14" lengthAdjust="spacing" textLength="142" x="455.5" y="96.1018">models : List&lt;Model&gt;</text><rect fill="none" height="6" style="stroke:#C82930;stroke-width:1.0;" width="6" x="443.5" y="108.2377"/><text fill="#000000" font-family="sans-serif" font-size="14" lengthAdjust="spacing" textLength="172" x="455.5" y="115.1697">flows : Map&lt;String, Flow&gt;</text></g><!--class Model--><g id="elem_Model"><rect codeLine="15" fill="#F1F1F1" height="97.2038" id="Model" rx="2.5" ry="2.5" style="stroke:#181818;stroke-width:0.5;" width="176" x="446.5" y="183"/><ellipse cx="509.25" cy="199" fill="#ADD1B2" rx="11" ry="11" style="stroke:#181818;stroke-width:1.0;"/><path d="M512.2188,204.6406 Q511.6406,204.9375 511,205.0781 Q510.3594,205.2344 509.6563,205.2344 Q507.1563,205.2344 505.8281,203.5938 Q504.5156,201.9375 504.5156,198.8125 Q504.5156,195.6875 505.8281,194.0313 Q507.1563,192.375 509.6563,192.375 Q510.3594,192.375 511,192.5313 Q511.6563,192.6875 512.2188,192.9844 L512.2188,195.7031 Q511.5938,195.125 511,194.8594 Q510.4063,194.5781 509.7813,194.5781 Q508.4375,194.5781 507.75,195.6563 Q507.0625,196.7188 507.0625,198.8125 Q507.0625,200.9063 507.75,201.9844 Q508.4375,203.0469 509.7813,203.0469 Q510.4063,203.0469 511,202.7813 Q511.5938,202.5 512.2188,201.9219 L512.2188,204.6406 Z " fill="#000000"/><text fill="#000000" font-family="sans-serif" font-size="14" lengthAdjust="spacing" textLength="42" x="529.75" y="204.432">Model</text><line style="stroke:#181818;stroke-width:0.5;" x1="447.5" x2="621.5" y1="215" y2="215"/><rect fill="none" height="6" style="stroke:#C82930;stroke-width:1.0;" width="6" x="454.5" y="227.034"/><text fill="#000000" font-family="sans-serif" font-size="14" lengthAdjust="spacing" textLength="91" x="466.5" y="233.9659">name : String</text><rect fill="none" height="6" style="stroke:#C82930;stroke-width:1.0;" width="6" x="454.5" y="246.1019"/><text fill="#000000" font-family="sans-serif" font-size="14" lengthAdjust="spacing" textLength="150" x="466.5" y="253.0339">type: ModelTypeEnum</text><rect fill="none" height="6" style="stroke:#C82930;stroke-width:1.0;" width="6" x="454.5" y="265.1698"/><text fill="#000000" font-family="sans-serif" font-size="14" lengthAdjust="spacing" textLength="117" x="466.5" y="272.1018">steps : List&lt;Step&gt;</text></g><!--class LoadCsvStep--><g id="elem_LoadCsvStep"><rect codeLine="21" fill="#F1F1F1" height="78.1358" id="LoadCsvStep" rx="2.5" ry="2.5" style="stroke:#181818;stroke-width:0.5;" width="271" x="7" y="516"/><ellipse cx="95.75" cy="532" fill="#ADD1B2" rx="11" ry="11" style="stroke:#181818;stroke-width:1.0;"/><path d="M98.7188,537.6406 Q98.1406,537.9375 97.5,538.0781 Q96.8594,538.2344 96.1563,538.2344 Q93.6563,538.2344 92.3281,536.5938 Q91.0156,534.9375 91.0156,531.8125 Q91.0156,528.6875 92.3281,527.0313 Q93.6563,525.375 96.1563,525.375 Q96.8594,525.375 97.5,525.5313 Q98.1563,525.6875 98.7188,525.9844 L98.7188,528.7031 Q98.0938,528.125 97.5,527.8594 Q96.9063,527.5781 96.2813,527.5781 Q94.9375,527.5781 94.25,528.6563 Q93.5625,529.7188 93.5625,531.8125 Q93.5625,533.9063 94.25,534.9844 Q94.9375,536.0469 96.2813,536.0469 Q96.9063,536.0469 97.5,535.7813 Q98.0938,535.5 98.7188,534.9219 L98.7188,537.6406 Z " fill="#000000"/><text fill="#000000" font-family="sans-serif" font-size="14" lengthAdjust="spacing" textLength="85" x="116.25" y="537.432">LoadCsvStep</text><line style="stroke:#181818;stroke-width:0.5;" x1="8" x2="277" y1="548" y2="548"/><rect fill="none" height="6" style="stroke:#C82930;stroke-width:1.0;" width="6" x="15" y="560.034"/><text fill="#000000" font-family="sans-serif" font-size="14" lengthAdjust="spacing" textLength="69" x="27" y="566.9659">path: Path</text><rect fill="none" height="6" style="stroke:#C82930;stroke-width:1.0;" width="6" x="15" y="579.1019"/><text fill="#000000" font-family="sans-serif" font-size="14" lengthAdjust="spacing" textLength="245" x="27" y="586.0339">label_columns : String | List&lt;String&gt;</text></g><!--class SplitDataStep--><g id="elem_SplitDataStep"><rect codeLine="25" fill="#F1F1F1" height="97.2038" id="SplitDataStep" rx="2.5" ry="2.5" style="stroke:#181818;stroke-width:0.5;" width="171" x="313" y="506.5"/><ellipse cx="349.6" cy="522.5" fill="#ADD1B2" rx="11" ry="11" style="stroke:#181818;stroke-width:1.0;"/><path d="M352.5688,528.1406 Q351.9906,528.4375 351.35,528.5781 Q350.7094,528.7344 350.0063,528.7344 Q347.5063,528.7344 346.1781,527.0938 Q344.8656,525.4375 344.8656,522.3125 Q344.8656,519.1875 346.1781,517.5313 Q347.5063,515.875 350.0063,515.875 Q350.7094,515.875 351.35,516.0313 Q352.0063,516.1875 352.5688,516.4844 L352.5688,519.2031 Q351.9438,518.625 351.35,518.3594 Q350.7563,518.0781 350.1313,518.0781 Q348.7875,518.0781 348.1,519.1563 Q347.4125,520.2188 347.4125,522.3125 Q347.4125,524.4063 348.1,525.4844 Q348.7875,526.5469 350.1313,526.5469 Q350.7563,526.5469 351.35,526.2813 Q351.9438,526 352.5688,525.4219 L352.5688,528.1406 Z " fill="#000000"/><text fill="#000000" font-family="sans-serif" font-size="14" lengthAdjust="spacing" textLength="91" x="368.4" y="527.932">SplitDataStep</text><line style="stroke:#181818;stroke-width:0.5;" x1="314" x2="483" y1="538.5" y2="538.5"/><rect fill="none" height="6" style="stroke:#C82930;stroke-width:1.0;" width="6" x="321" y="550.534"/><text fill="#000000" font-family="sans-serif" font-size="14" lengthAdjust="spacing" textLength="145" x="333" y="557.4659">dataframe: Pandas.df</text><rect fill="none" height="6" style="stroke:#C82930;stroke-width:1.0;" width="6" x="321" y="569.6019"/><text fill="#000000" font-family="sans-serif" font-size="14" lengthAdjust="spacing" textLength="122" x="333" y="576.5339">on_column: String</text><rect fill="none" height="6" style="stroke:#C82930;stroke-width:1.0;" width="6" x="321" y="588.6698"/><text fill="#000000" font-family="sans-serif" font-size="14" lengthAdjust="spacing" textLength="134" x="333" y="595.6018">for_each: List&lt;Step&gt;</text></g><!--class TrainBertSequenceClassifierStep--><g id="elem_TrainBertSequenceClassifierStep"><rect codeLine="30" fill="#F1F1F1" height="154.4075" id="TrainBertSequenceClassifierStep" rx="2.5" ry="2.5" style="stroke:#181818;stroke-width:0.5;" width="302" x="519.5" y="478"/><ellipse cx="556.55" cy="494" fill="#ADD1B2" rx="11" ry="11" style="stroke:#181818;stroke-width:1.0;"/><path d="M559.5188,499.6406 Q558.9406,499.9375 558.3,500.0781 Q557.6594,500.2344 556.9563,500.2344 Q554.4563,500.2344 553.1281,498.5938 Q551.8156,496.9375 551.8156,493.8125 Q551.8156,490.6875 553.1281,489.0313 Q554.4563,487.375 556.9563,487.375 Q557.6594,487.375 558.3,487.5313 Q558.9563,487.6875 559.5188,487.9844 L559.5188,490.7031 Q558.8938,490.125 558.3,489.8594 Q557.7063,489.5781 557.0813,489.5781 Q555.7375,489.5781 555.05,490.6563 Q554.3625,491.7188 554.3625,493.8125 Q554.3625,495.9063 555.05,496.9844 Q555.7375,498.0469 557.0813,498.0469 Q557.7063,498.0469 558.3,497.7813 Q558.8938,497.5 559.5188,496.9219 L559.5188,499.6406 Z " fill="#000000"/><text fill="#000000" font-family="sans-serif" font-size="14" lengthAdjust="spacing" textLength="221" x="575.45" y="499.432">TrainBertSequenceClassifierStep</text><line style="stroke:#181818;stroke-width:0.5;" x1="520.5" x2="820.5" y1="510" y2="510"/><rect fill="none" height="6" style="stroke:#C82930;stroke-width:1.0;" width="6" x="527.5" y="522.034"/><text fill="#000000" font-family="sans-serif" font-size="14" lengthAdjust="spacing" textLength="145" x="539.5" y="528.9659">dataframe: Pandas.df</text><rect fill="none" height="6" style="stroke:#C82930;stroke-width:1.0;" width="6" x="527.5" y="541.1019"/><text fill="#000000" font-family="sans-serif" font-size="14" lengthAdjust="spacing" textLength="244" x="539.5" y="548.0339">pretrained_model: PreTrainedModel</text><rect fill="none" height="6" style="stroke:#C82930;stroke-width:1.0;" width="6" x="527.5" y="560.1698"/><text fill="#000000" font-family="sans-serif" font-size="14" lengthAdjust="spacing" textLength="169" x="539.5" y="567.1018">examples_column: String</text><rect fill="none" height="6" style="stroke:#C82930;stroke-width:1.0;" width="6" x="527.5" y="579.2377"/><text fill="#000000" font-family="sans-serif" font-size="14" lengthAdjust="spacing" textLength="145" x="539.5" y="586.1697">labels_column: String</text><rect fill="none" height="6" style="stroke:#C82930;stroke-width:1.0;" width="6" x="527.5" y="598.3056"/><text fill="#000000" font-family="sans-serif" font-size="14" lengthAdjust="spacing" textLength="116" x="539.5" y="605.2376">train_epochs : int</text><rect fill="none" height="6" style="stroke:#C82930;stroke-width:1.0;" width="6" x="527.5" y="617.3735"/><text fill="#000000" font-family="sans-serif" font-size="14" lengthAdjust="spacing" textLength="276" x="539.5" y="624.3055">resulting_model_name: Optional&lt;String&gt;</text></g><!--class TrainSpacyNerModelStep--><g id="elem_TrainSpacyNerModelStep"><rect codeLine="38" fill="#F1F1F1" height="116.2717" id="TrainSpacyNerModelStep" rx="2.5" ry="2.5" style="stroke:#181818;stroke-width:0.5;" width="302" x="856.5" y="497"/><ellipse cx="917.75" cy="513" fill="#ADD1B2" rx="11" ry="11" style="stroke:#181818;stroke-width:1.0;"/><path d="M920.7188,518.6406 Q920.1406,518.9375 919.5,519.0781 Q918.8594,519.2344 918.1563,519.2344 Q915.6563,519.2344 914.3281,517.5938 Q913.0156,515.9375 913.0156,512.8125 Q913.0156,509.6875 914.3281,508.0313 Q915.6563,506.375 918.1563,506.375 Q918.8594,506.375 919.5,506.5313 Q920.1563,506.6875 920.7188,506.9844 L920.7188,509.7031 Q920.0938,509.125 919.5,508.8594 Q918.9063,508.5781 918.2813,508.5781 Q916.9375,508.5781 916.25,509.6563 Q915.5625,510.7188 915.5625,512.8125 Q915.5625,514.9063 916.25,515.9844 Q916.9375,517.0469 918.2813,517.0469 Q918.9063,517.0469 919.5,516.7813 Q920.0938,516.5 920.7188,515.9219 L920.7188,518.6406 Z " fill="#000000"/><text fill="#000000" font-family="sans-serif" font-size="14" lengthAdjust="spacing" textLength="171" x="938.25" y="518.432">TrainSpacyNerModelStep</text><line style="stroke:#181818;stroke-width:0.5;" x1="857.5" x2="1157.5" y1="529" y2="529"/><rect fill="none" height="6" style="stroke:#C82930;stroke-width:1.0;" width="6" x="864.5" y="541.034"/><text fill="#000000" font-family="sans-serif" font-size="14" lengthAdjust="spacing" textLength="113" x="876.5" y="547.9659">language: String</text><rect fill="none" height="6" style="stroke:#C82930;stroke-width:1.0;" width="6" x="864.5" y="560.1019"/><text fill="#000000" font-family="sans-serif" font-size="14" lengthAdjust="spacing" textLength="165" x="876.5" y="567.0339">training_data_path: Path</text><rect fill="none" height="6" style="stroke:#C82930;stroke-width:1.0;" width="6" x="864.5" y="579.1698"/><text fill="#000000" font-family="sans-serif" font-size="14" lengthAdjust="spacing" textLength="203" x="876.5" y="586.1018">training_device: "cpu" | "gpu"</text><rect fill="none" height="6" style="stroke:#C82930;stroke-width:1.0;" width="6" x="864.5" y="598.2377"/><text fill="#000000" font-family="sans-serif" font-size="14" lengthAdjust="spacing" textLength="276" x="876.5" y="605.1697">resulting_model_name: Optional&lt;String&gt;</text></g><!--reverse link Step to LoadCsvStep--><g id="link_Step_LoadCsvStep"><path d="M420.6083,424.7221 C376.9383,442.2721 341.67,457.1 295.5,478 C269.56,489.74 241.56,503.36 216.69,515.81 " fill="none" id="Step-backto-LoadCsvStep" style="stroke:#181818;stroke-width:1.0;"/><polygon fill="none" points="437.31,418.01,418.3709,419.1548,422.8456,430.2893,437.31,418.01" style="stroke:#181818;stroke-width:1.0;"/></g><!--reverse link Step to SplitDataStep--><g id="link_Step_SplitDataStep"><path d="M493.5658,432.3724 C473.3158,458.2824 457.48,478.55 435.81,506.27 " fill="none" id="Step-backto-SplitDataStep" style="stroke:#181818;stroke-width:1.0;"/><polygon fill="none" points="504.65,418.19,488.8383,428.6776,498.2932,436.0671,504.65,418.19" style="stroke:#181818;stroke-width:1.0;"/></g><!--reverse link Step to TrainBertSequenceClassifierStep--><g id="link_Step_TrainBertSequenceClassifierStep"><path d="M575.4357,432.3712 C589.1157,449.8712 594.76,457.1 610.86,477.69 " fill="none" id="Step-backto-TrainBertSequenceClassifierStep" style="stroke:#181818;stroke-width:1.0;"/><polygon fill="none" points="564.35,418.19,570.7086,436.0665,580.1628,428.676,564.35,418.19" style="stroke:#181818;stroke-width:1.0;"/></g><!--reverse link Step to TrainSpacyNerModelStep--><g id="link_Step_TrainSpacyNerModelStep"><path d="M679.323,422.7793 C734.393,439.8493 782.02,455.85 839.5,478 C854.58,483.81 870.26,490.29 885.69,496.94 " fill="none" id="Step-backto-TrainSpacyNerModelStep" style="stroke:#181818;stroke-width:1.0;"/><polygon fill="none" points="662.13,417.45,677.5466,428.5103,681.0994,417.0483,662.13,417.45" style="stroke:#181818;stroke-width:1.0;"/></g><!--link CompilerConfigV2 to Model--><g id="link_CompilerConfigV2_Model"><path codeLine="45" d="M534.5,123.07 C534.5,142.56 534.5,158.13 534.5,176.8 " fill="none" id="CompilerConfigV2-to-Model" style="stroke:#181818;stroke-width:1.0;"/><polygon fill="#181818" points="534.5,182.8,538.5,173.8,534.5,177.8,530.5,173.8,534.5,182.8" style="stroke:#181818;stroke-width:1.0;"/></g><!--link Model to Step--><g id="link_Model_Step"><path codeLine="46" d="M534.5,280.14 C534.5,299.54 534.5,315.64 534.5,333.93 " fill="none" id="Model-to-Step" style="stroke:#181818;stroke-width:1.0;"/><polygon fill="#181818" points="534.5,339.93,538.5,330.93,534.5,334.93,530.5,330.93,534.5,339.93" style="stroke:#181818;stroke-width:1.0;"/></g><!--SRC=[dLCzRzim4DtvArWlMUeC7Ot0GzrsIfe0Ch8A9_8aCQ18XZmbCTB-z_AhJY771LeDalZUwTwxH-g2Vw0H9-G2V6VDUl1mOAEIo75oTE0JqcXbO0owG1u4SQ4X1DuGElxAUBpMt41iiE6ne08EV8G8VOZm3RYhXhmomqT-spsWe2txoLZfixEJKnhzpffU3VUVbZtBXnMR0xRFO6GNYSvQZM0gCrc9EebTgq1NDscrhLIlxVFInhU89HF5Gox_gp0T76vAtJw-VZNpL9aGSpZgfb3-cEtQWjo5fnmLlX0QkSZD0OqRVXVl5T3GeMw5rVDamj44__6xVLgz-MwSLlG52CuhoCZsQI-IZ94GBcLVAMkgq6BMtleMGOoBcOhateCodz5JWuyp6e6x1AjUeVyl4yuZfPOesxo5iSBZlY0vxbg7Bp0vZU5zopcsCrnktwApOao9AaELy1XcJR6mABSc6xnrfAm1VH9sDjKu48VlwBErymDhCCCC0xvd9GccGDgJpN-ZyKc9-F5Ak7aLDtyrnEU_kcOdVzPwlIr7c9K3dzR9DhjOdAGZyGi0]--></g></svg>