<?xml version="1.0" encoding="us-ascii" standalone="no"?><svg xmlns="http://www.w3.org/2000/svg" xmlns:xlink="http://www.w3.org/1999/xlink" contentStyleType="text/css" height="880px" preserveAspectRatio="none" style="width:779px;height:880px;background:#FFFFFF;" version="1.1" viewBox="0 0 779 880" width="779px" zoomAndPan="magnify"><defs/><g><!--class Step--><g id="elem_Step"><rect codeLine="8" fill="#F1F1F1" height="162.4075" id="Step" rx="2.5" ry="2.5" style="stroke:#181818;stroke-width:0.5;" width="540" x="45.5" y="340"/><ellipse cx="297.75" cy="356" fill="#A9DCDF" rx="11" ry="11" style="stroke:#181818;stroke-width:1.0;"/><path d="M297.8594,351.3438 L296.7031,356.4219 L299.0313,356.4219 L297.8594,351.3438 Z M296.375,349.1094 L299.3594,349.1094 L302.7188,361.5 L300.2656,361.5 L299.5,358.4375 L296.2188,358.4375 L295.4688,361.5 L293.0313,361.5 L296.375,349.1094 Z " fill="#000000"/><text fill="#000000" font-family="sans-serif" font-size="14" font-style="italic" lengthAdjust="spacing" textLength="27" x="318.25" y="361.432">Step</text><line style="stroke:#181818;stroke-width:0.5;" x1="46.5" x2="584.5" y1="372" y2="372"/><ellipse cx="56.5" cy="387.034" fill="none" rx="3" ry="3" style="stroke:#038048;stroke-width:1.0;"/><text fill="#000000" font-family="sans-serif" font-size="14" lengthAdjust="spacing" textLength="91" x="65.5" y="390.9659">name : String</text><ellipse cx="56.5" cy="406.1019" fill="none" rx="3" ry="3" style="stroke:#038048;stroke-width:1.0;"/><text fill="#000000" font-family="sans-serif" font-size="14" lengthAdjust="spacing" textLength="78" x="65.5" y="410.0339">type: String</text><ellipse cx="56.5" cy="425.1698" fill="none" rx="3" ry="3" style="stroke:#038048;stroke-width:1.0;"/><text fill="#000000" font-family="sans-serif" font-size="14" lengthAdjust="spacing" textLength="169" x="65.5" y="429.1018">description: String | Null</text><line style="stroke:#181818;stroke-width:0.5;" x1="46.5" x2="584.5" y1="437.2038" y2="437.2038"/><ellipse cx="56.5" cy="452.2377" fill="#84BE84" rx="3" ry="3" style="stroke:#038048;stroke-width:1.0;"/><text fill="#000000" font-family="sans-serif" font-size="14" lengthAdjust="spacing" textLength="445" x="65.5" y="456.1697">resolve_requirements(context: Map&lt;String, Map&lt;String, Object&gt;&gt;)</text><ellipse cx="56.5" cy="471.3056" fill="#84BE84" rx="3" ry="3" style="stroke:#038048;stroke-width:1.0;"/><text fill="#000000" font-family="sans-serif" font-size="14" font-style="italic" lengthAdjust="spacing" textLength="514" x="65.5" y="475.2376">execute(inputs: Map&lt;String, Object&gt;, context: Map&lt;String, Map&lt;String, Object&gt;&gt;)</text><ellipse cx="56.5" cy="490.3735" fill="#84BE84" rx="3" ry="3" style="stroke:#038048;stroke-width:1.0;"/><text fill="#000000" font-family="sans-serif" font-size="14" lengthAdjust="spacing" textLength="315" x="65.5" y="494.3055">verify_execution(outputs: Map&lt;String, Object&gt;)</text></g><!--class CompilerConfigV2--><g id="elem_CompilerConfigV2"><rect codeLine="17" fill="#F1F1F1" height="116.2717" id="CompilerConfigV2" rx="2.5" ry="2.5" style="stroke:#181818;stroke-width:0.5;" width="198" x="216.5" y="7"/><ellipse cx="251.75" cy="23" fill="#ADD1B2" rx="11" ry="11" style="stroke:#181818;stroke-width:1.0;"/><path d="M254.7188,28.6406 Q254.1406,28.9375 253.5,29.0781 Q252.8594,29.2344 252.1563,29.2344 Q249.6563,29.2344 248.3281,27.5938 Q247.0156,25.9375 247.0156,22.8125 Q247.0156,19.6875 248.3281,18.0313 Q249.6563,16.375 252.1563,16.375 Q252.8594,16.375 253.5,16.5313 Q254.1563,16.6875 254.7188,16.9844 L254.7188,19.7031 Q254.0938,19.125 253.5,18.8594 Q252.9063,18.5781 252.2813,18.5781 Q250.9375,18.5781 250.25,19.6563 Q249.5625,20.7188 249.5625,22.8125 Q249.5625,24.9063 250.25,25.9844 Q250.9375,27.0469 252.2813,27.0469 Q252.9063,27.0469 253.5,26.7813 Q254.0938,26.5 254.7188,25.9219 L254.7188,28.6406 Z " fill="#000000"/><text fill="#000000" font-family="sans-serif" font-size="14" lengthAdjust="spacing" textLength="121" x="270.25" y="28.432">CompilerConfigV2</text><line style="stroke:#181818;stroke-width:0.5;" x1="217.5" x2="413.5" y1="39" y2="39"/><ellipse cx="227.5" cy="54.034" fill="none" rx="3" ry="3" style="stroke:#038048;stroke-width:1.0;"/><text fill="#000000" font-family="sans-serif" font-size="14" lengthAdjust="spacing" textLength="91" x="236.5" y="57.9659">name : String</text><ellipse cx="227.5" cy="73.1019" fill="none" rx="3" ry="3" style="stroke:#038048;stroke-width:1.0;"/><text fill="#000000" font-family="sans-serif" font-size="14" lengthAdjust="spacing" textLength="142" x="236.5" y="77.0339">use_wandb : boolean</text><ellipse cx="227.5" cy="92.1698" fill="none" rx="3" ry="3" style="stroke:#038048;stroke-width:1.0;"/><text fill="#000000" font-family="sans-serif" font-size="14" lengthAdjust="spacing" textLength="142" x="236.5" y="96.1018">models : List&lt;Model&gt;</text><ellipse cx="227.5" cy="111.2377" fill="none" rx="3" ry="3" style="stroke:#038048;stroke-width:1.0;"/><text fill="#000000" font-family="sans-serif" font-size="14" lengthAdjust="spacing" textLength="172" x="236.5" y="115.1697">flows : Map&lt;String, Flow&gt;</text></g><!--class Model--><g id="elem_Model"><rect codeLine="23" fill="#F1F1F1" height="97.2038" id="Model" rx="2.5" ry="2.5" style="stroke:#181818;stroke-width:0.5;" width="176" x="227.5" y="183"/><ellipse cx="290.25" cy="199" fill="#ADD1B2" rx="11" ry="11" style="stroke:#181818;stroke-width:1.0;"/><path d="M293.2188,204.6406 Q292.6406,204.9375 292,205.0781 Q291.3594,205.2344 290.6563,205.2344 Q288.1563,205.2344 286.8281,203.5938 Q285.5156,201.9375 285.5156,198.8125 Q285.5156,195.6875 286.8281,194.0313 Q288.1563,192.375 290.6563,192.375 Q291.3594,192.375 292,192.5313 Q292.6563,192.6875 293.2188,192.9844 L293.2188,195.7031 Q292.5938,195.125 292,194.8594 Q291.4063,194.5781 290.7813,194.5781 Q289.4375,194.5781 288.75,195.6563 Q288.0625,196.7188 288.0625,198.8125 Q288.0625,200.9063 288.75,201.9844 Q289.4375,203.0469 290.7813,203.0469 Q291.4063,203.0469 292,202.7813 Q292.5938,202.5 293.2188,201.9219 L293.2188,204.6406 Z " fill="#000000"/><text fill="#000000" font-family="sans-serif" font-size="14" lengthAdjust="spacing" textLength="42" x="310.75" y="204.432">Model</text><line style="stroke:#181818;stroke-width:0.5;" x1="228.5" x2="402.5" y1="215" y2="215"/><ellipse cx="238.5" cy="230.034" fill="none" rx="3" ry="3" style="stroke:#038048;stroke-width:1.0;"/><text fill="#000000" font-family="sans-serif" font-size="14" lengthAdjust="spacing" textLength="91" x="247.5" y="233.9659">name : String</text><ellipse cx="238.5" cy="249.1019" fill="none" rx="3" ry="3" style="stroke:#038048;stroke-width:1.0;"/><text fill="#000000" font-family="sans-serif" font-size="14" lengthAdjust="spacing" textLength="150" x="247.5" y="253.0339">type: ModelTypeEnum</text><ellipse cx="238.5" cy="268.1698" fill="none" rx="3" ry="3" style="stroke:#038048;stroke-width:1.0;"/><text fill="#000000" font-family="sans-serif" font-size="14" lengthAdjust="spacing" textLength="117" x="247.5" y="272.1018">steps : List&lt;Step&gt;</text></g><!--class LoadCsvStep--><g id="elem_LoadCsvStep"><rect codeLine="29" fill="#F1F1F1" height="78.1358" id="LoadCsvStep" rx="2.5" ry="2.5" style="stroke:#181818;stroke-width:0.5;" width="271" x="7" y="785.5"/><ellipse cx="95.75" cy="801.5" fill="#ADD1B2" rx="11" ry="11" style="stroke:#181818;stroke-width:1.0;"/><path d="M98.7188,807.1406 Q98.1406,807.4375 97.5,807.5781 Q96.8594,807.7344 96.1563,807.7344 Q93.6563,807.7344 92.3281,806.0938 Q91.0156,804.4375 91.0156,801.3125 Q91.0156,798.1875 92.3281,796.5313 Q93.6563,794.875 96.1563,794.875 Q96.8594,794.875 97.5,795.0313 Q98.1563,795.1875 98.7188,795.4844 L98.7188,798.2031 Q98.0938,797.625 97.5,797.3594 Q96.9063,797.0781 96.2813,797.0781 Q94.9375,797.0781 94.25,798.1563 Q93.5625,799.2188 93.5625,801.3125 Q93.5625,803.4063 94.25,804.4844 Q94.9375,805.5469 96.2813,805.5469 Q96.9063,805.5469 97.5,805.2813 Q98.0938,805 98.7188,804.4219 L98.7188,807.1406 Z " fill="#000000"/><text fill="#000000" font-family="sans-serif" font-size="14" lengthAdjust="spacing" textLength="85" x="116.25" y="806.932">LoadCsvStep</text><line style="stroke:#181818;stroke-width:0.5;" x1="8" x2="277" y1="817.5" y2="817.5"/><ellipse cx="18" cy="832.534" fill="none" rx="3" ry="3" style="stroke:#038048;stroke-width:1.0;"/><text fill="#000000" font-family="sans-serif" font-size="14" lengthAdjust="spacing" textLength="69" x="27" y="836.4659">path: Path</text><ellipse cx="18" cy="851.6019" fill="none" rx="3" ry="3" style="stroke:#038048;stroke-width:1.0;"/><text fill="#000000" font-family="sans-serif" font-size="14" lengthAdjust="spacing" textLength="245" x="27" y="855.5339">label_columns : String | List&lt;String&gt;</text></g><!--class SplitDataStep--><g id="elem_SplitDataStep"><rect codeLine="33" fill="#F1F1F1" height="97.2038" id="SplitDataStep" rx="2.5" ry="2.5" style="stroke:#181818;stroke-width:0.5;" width="228" x="374.5" y="776"/><ellipse cx="438.75" cy="792" fill="#ADD1B2" rx="11" ry="11" style="stroke:#181818;stroke-width:1.0;"/><path d="M441.7188,797.6406 Q441.1406,797.9375 440.5,798.0781 Q439.8594,798.2344 439.1563,798.2344 Q436.6563,798.2344 435.3281,796.5938 Q434.0156,794.9375 434.0156,791.8125 Q434.0156,788.6875 435.3281,787.0313 Q436.6563,785.375 439.1563,785.375 Q439.8594,785.375 440.5,785.5313 Q441.1563,785.6875 441.7188,785.9844 L441.7188,788.7031 Q441.0938,788.125 440.5,787.8594 Q439.9063,787.5781 439.2813,787.5781 Q437.9375,787.5781 437.25,788.6563 Q436.5625,789.7188 436.5625,791.8125 Q436.5625,793.9063 437.25,794.9844 Q437.9375,796.0469 439.2813,796.0469 Q439.9063,796.0469 440.5,795.7813 Q441.0938,795.5 441.7188,794.9219 L441.7188,797.6406 Z " fill="#000000"/><text fill="#000000" font-family="sans-serif" font-size="14" lengthAdjust="spacing" textLength="91" x="459.25" y="797.432">SplitDataStep</text><line style="stroke:#181818;stroke-width:0.5;" x1="375.5" x2="601.5" y1="808" y2="808"/><ellipse cx="385.5" cy="823.034" fill="none" rx="3" ry="3" style="stroke:#038048;stroke-width:1.0;"/><text fill="#000000" font-family="sans-serif" font-size="14" lengthAdjust="spacing" textLength="202" x="394.5" y="826.9659">dataframe: Pandas.Dataframe</text><ellipse cx="385.5" cy="842.1019" fill="none" rx="3" ry="3" style="stroke:#038048;stroke-width:1.0;"/><text fill="#000000" font-family="sans-serif" font-size="14" lengthAdjust="spacing" textLength="122" x="394.5" y="846.0339">on_column: String</text><ellipse cx="385.5" cy="861.1698" fill="none" rx="3" ry="3" style="stroke:#038048;stroke-width:1.0;"/><text fill="#000000" font-family="sans-serif" font-size="14" lengthAdjust="spacing" textLength="134" x="394.5" y="865.1018">for_each: List&lt;Step&gt;</text></g><!--class TrainBertSequenceClassifierStep--><g id="elem_TrainBertSequenceClassifierStep"><rect codeLine="38" fill="#F1F1F1" height="154.4075" id="TrainBertSequenceClassifierStep" rx="2.5" ry="2.5" style="stroke:#181818;stroke-width:0.5;" width="302" x="62.5" y="562"/><ellipse cx="99.55" cy="578" fill="#ADD1B2" rx="11" ry="11" style="stroke:#181818;stroke-width:1.0;"/><path d="M102.5188,583.6406 Q101.9406,583.9375 101.3,584.0781 Q100.6594,584.2344 99.9563,584.2344 Q97.4563,584.2344 96.1281,582.5938 Q94.8156,580.9375 94.8156,577.8125 Q94.8156,574.6875 96.1281,573.0313 Q97.4563,571.375 99.9563,571.375 Q100.6594,571.375 101.3,571.5313 Q101.9563,571.6875 102.5188,571.9844 L102.5188,574.7031 Q101.8938,574.125 101.3,573.8594 Q100.7063,573.5781 100.0813,573.5781 Q98.7375,573.5781 98.05,574.6563 Q97.3625,575.7188 97.3625,577.8125 Q97.3625,579.9063 98.05,580.9844 Q98.7375,582.0469 100.0813,582.0469 Q100.7063,582.0469 101.3,581.7813 Q101.8938,581.5 102.5188,580.9219 L102.5188,583.6406 Z " fill="#000000"/><text fill="#000000" font-family="sans-serif" font-size="14" lengthAdjust="spacing" textLength="221" x="118.45" y="583.432">TrainBertSequenceClassifierStep</text><line style="stroke:#181818;stroke-width:0.5;" x1="63.5" x2="363.5" y1="594" y2="594"/><ellipse cx="73.5" cy="609.034" fill="none" rx="3" ry="3" style="stroke:#038048;stroke-width:1.0;"/><text fill="#000000" font-family="sans-serif" font-size="14" lengthAdjust="spacing" textLength="202" x="82.5" y="612.9659">dataframe: Pandas.Dataframe</text><ellipse cx="73.5" cy="628.1019" fill="none" rx="3" ry="3" style="stroke:#038048;stroke-width:1.0;"/><text fill="#000000" font-family="sans-serif" font-size="14" lengthAdjust="spacing" textLength="244" x="82.5" y="632.0339">pretrained_model: PreTrainedModel</text><ellipse cx="73.5" cy="647.1698" fill="none" rx="3" ry="3" style="stroke:#038048;stroke-width:1.0;"/><text fill="#000000" font-family="sans-serif" font-size="14" lengthAdjust="spacing" textLength="169" x="82.5" y="651.1018">examples_column: String</text><ellipse cx="73.5" cy="666.2377" fill="none" rx="3" ry="3" style="stroke:#038048;stroke-width:1.0;"/><text fill="#000000" font-family="sans-serif" font-size="14" lengthAdjust="spacing" textLength="145" x="82.5" y="670.1697">labels_column: String</text><ellipse cx="73.5" cy="685.3056" fill="none" rx="3" ry="3" style="stroke:#038048;stroke-width:1.0;"/><text fill="#000000" font-family="sans-serif" font-size="14" lengthAdjust="spacing" textLength="116" x="82.5" y="689.2376">train_epochs : int</text><ellipse cx="73.5" cy="704.3735" fill="none" rx="3" ry="3" style="stroke:#038048;stroke-width:1.0;"/><text fill="#000000" font-family="sans-serif" font-size="14" lengthAdjust="spacing" textLength="276" x="82.5" y="708.3055">resulting_model_name: Optional&lt;String&gt;</text></g><!--class TrainSpacyNerModelStep--><g id="elem_TrainSpacyNerModelStep"><rect codeLine="46" fill="#F1F1F1" height="116.2717" id="TrainSpacyNerModelStep" rx="2.5" ry="2.5" style="stroke:#181818;stroke-width:0.5;" width="302" x="470.5" y="581"/><ellipse cx="531.75" cy="597" fill="#ADD1B2" rx="11" ry="11" style="stroke:#181818;stroke-width:1.0;"/><path d="M534.7188,602.6406 Q534.1406,602.9375 533.5,603.0781 Q532.8594,603.2344 532.1563,603.2344 Q529.6563,603.2344 528.3281,601.5938 Q527.0156,599.9375 527.0156,596.8125 Q527.0156,593.6875 528.3281,592.0313 Q529.6563,590.375 532.1563,590.375 Q532.8594,590.375 533.5,590.5313 Q534.1563,590.6875 534.7188,590.9844 L534.7188,593.7031 Q534.0938,593.125 533.5,592.8594 Q532.9063,592.5781 532.2813,592.5781 Q530.9375,592.5781 530.25,593.6563 Q529.5625,594.7188 529.5625,596.8125 Q529.5625,598.9063 530.25,599.9844 Q530.9375,601.0469 532.2813,601.0469 Q532.9063,601.0469 533.5,600.7813 Q534.0938,600.5 534.7188,599.9219 L534.7188,602.6406 Z " fill="#000000"/><text fill="#000000" font-family="sans-serif" font-size="14" lengthAdjust="spacing" textLength="171" x="552.25" y="602.432">TrainSpacyNerModelStep</text><line style="stroke:#181818;stroke-width:0.5;" x1="471.5" x2="771.5" y1="613" y2="613"/><ellipse cx="481.5" cy="628.034" fill="none" rx="3" ry="3" style="stroke:#038048;stroke-width:1.0;"/><text fill="#000000" font-family="sans-serif" font-size="14" lengthAdjust="spacing" textLength="113" x="490.5" y="631.9659">language: String</text><ellipse cx="481.5" cy="647.1019" fill="none" rx="3" ry="3" style="stroke:#038048;stroke-width:1.0;"/><text fill="#000000" font-family="sans-serif" font-size="14" lengthAdjust="spacing" textLength="165" x="490.5" y="651.0339">training_data_path: Path</text><ellipse cx="481.5" cy="666.1698" fill="none" rx="3" ry="3" style="stroke:#038048;stroke-width:1.0;"/><text fill="#000000" font-family="sans-serif" font-size="14" lengthAdjust="spacing" textLength="203" x="490.5" y="670.1018">training_device: "cpu" | "gpu"</text><ellipse cx="481.5" cy="685.2377" fill="none" rx="3" ry="3" style="stroke:#038048;stroke-width:1.0;"/><text fill="#000000" font-family="sans-serif" font-size="14" lengthAdjust="spacing" textLength="276" x="490.5" y="689.1697">resulting_model_name: Optional&lt;String&gt;</text></g><!--link CompilerConfigV2 to Model--><g id="link_CompilerConfigV2_Model"><path codeLine="53" d="M315.5,123.23 C315.5,142.74 315.5,158.26 315.5,176.95 " fill="none" id="CompilerConfigV2-to-Model" style="stroke:#181818;stroke-width:1.0;"/><polygon fill="#181818" points="315.5,182.95,319.5,173.95,315.5,177.95,311.5,173.95,315.5,182.95" style="stroke:#181818;stroke-width:1.0;"/></g><!--link Model to Step--><g id="link_Model_Step"><path codeLine="54" d="M315.5,280.3 C315.5,298.4 315.5,313.44 315.5,333.65 " fill="none" id="Model-to-Step" style="stroke:#181818;stroke-width:1.0;"/><polygon fill="#181818" points="315.5,339.65,319.5,330.65,315.5,334.65,311.5,330.65,315.5,339.65" style="stroke:#181818;stroke-width:1.0;"/></g><!--reverse link Step to LoadCsvStep--><g id="link_Step_LoadCsvStep"><path codeLine="55" d="M54,520.17 C54,606.12 54,720.2 54,785.37 " fill="none" id="Step-backto-LoadCsvStep" style="stroke:#181818;stroke-width:1.0;"/><polygon fill="none" points="54,502.17,48,520.17,60,520.17,54,502.17" style="stroke:#181818;stroke-width:1.0;"/></g><!--reverse link Step to SplitDataStep--><g id="link_Step_SplitDataStep"><path codeLine="56" d="M422.5,520.17 C422.5,602.1 422.5,707.93 422.5,775.78 " fill="none" id="Step-backto-SplitDataStep" style="stroke:#181818;stroke-width:1.0;"/><polygon fill="none" points="422.5,502.17,416.5,520.17,428.5,520.17,422.5,502.17" style="stroke:#181818;stroke-width:1.0;"/></g><!--link TrainBertSequenceClassifierStep to LoadCsvStep--><!--reverse link Step to TrainBertSequenceClassifierStep--><g id="link_Step_TrainBertSequenceClassifierStep"><path codeLine="58" d="M213.5,520.18 C213.5,539.67 213.5,542.43 213.5,561.73 " fill="none" id="Step-backto-TrainBertSequenceClassifierStep" style="stroke:#181818;stroke-width:1.0;"/><polygon fill="none" points="213.5,502.18,207.5,520.18,219.5,520.18,213.5,502.18" style="stroke:#181818;stroke-width:1.0;"/></g><!--link TrainSpacyNerModelStep to SplitDataStep--><!--reverse link Step to TrainSpacyNerModelStep--><g id="link_Step_TrainSpacyNerModelStep"><path codeLine="60" d="M528,520.18 C528,546.32 528,556.76 528,580.9 " fill="none" id="Step-backto-TrainSpacyNerModelStep" style="stroke:#181818;stroke-width:1.0;"/><polygon fill="none" points="528,502.18,522,520.18,534,520.18,528,502.18" style="stroke:#181818;stroke-width:1.0;"/></g><!--SRC=[bLHDKzim4BthLmWkm1Jtq6E6oQ6XFV7HcJ2zT3gUZRosrSgIAgq36U2_TsKByWMbv93ORrVllVrGZkG1jTYXL10MpXPDW9LeTOKIEqyhsI6rhehYI1xu04q7qi3AzIGZHy021mpM9Cd9e9kMPAK3AjBEYlXRMmy1EccqHLfvb2umcn025f42A9BAG8noJkZblP3y-I0ji9i9Oq7R9cFfy0vKOLH1-wJq594Fyget9YS4ZCuiiGpufsTF7LgAnyfPmZkQo4lmP-EfqwtdwyKljZ-TdcIM-oUhZnBlKFM4nrnLJt7oqh5J-Mw19GPThygHd8ivvkQ-odyY7eKOUpPpdTS6mypPMZVVF_spVtt4yXPijU30mZc3O7EaSnMQoF25ZdHscTwcELGRTviYcpw-CZPb4wE78Vq_1ZVatV3Z5zjtEH9vvi-wQG6cwzek75IpkDnQ2m_KJkGt_iw0WGMQKZdJTpRAZHt8ZEbjRNNkZQPp81X8drahHcfUKKpKjeBuyVm9oHdEPesToceNIWJLxbGmgjq4qFOp1fhpyg5LE4kmhZM6z-hxW9JOi2g7MN5Ym9iH6VgQy_0EEcymlknsQDOhiO6-HEzKc_geBQrlK6-84qVbqWu-huSx1sQlnOEfkGUrki8mMDkkrO1jUcZm9VaaadfHxerv7SQbLdpuKFd-aCTysF3lUvsAlMjJ5DDnFyMupKNbRYrZoRlONCIYzyL3nhUtQJForkIB7_pdMg7zcMKs5Du-kwkpt-nT-YsZhnxQuFqB]--></g></svg>